<svg id="Layer_1" data-name="Layer 1" xmlns="http://www.w3.org/2000/svg" viewBox="0 0 850 235"><defs><style>.cls-1{fill:#138690;}.cls-2{fill:#a40505;}</style></defs><title>logo</title><path class="cls-1" d="M25.825,193.734H21.646V189.79h4.179v-2.649c0-3.473.942-6.122,2.649-7.829a8.959,8.959,0,0,1,6.533-2.354,13.754,13.754,0,0,1,5,.765v3.944A15.136,15.136,0,0,0,35.6,180.9c-3.532,0-5.3,2.119-5.3,6.475v2.472h9.654v3.885H30.357v26.429H25.825Z"/><path class="cls-1" d="M43.248,205.094v-.117a15.864,15.864,0,0,1,31.727-.118v.118A15.8,15.8,0,0,1,59.023,220.87,15.59,15.59,0,0,1,43.248,205.094Zm27.077,0v-.117c0-6.534-4.886-11.891-11.3-11.891-6.593,0-11.125,5.357-11.125,11.773v.118c0,6.533,4.827,11.831,11.243,11.831C65.733,216.808,70.325,211.51,70.325,205.094Z"/><path class="cls-1" d="M83.157,189.731h4.532v7.946c2.237-5.061,6.652-8.711,12.42-8.476v4.886h-.353c-6.652,0-12.067,4.768-12.067,13.95v12.126H83.157Z"/><path class="cls-1" d="M125.832,178.959h4.65v41.2h-4.65Z"/><path class="cls-1" d="M141.783,189.731h4.532v5.3a11.523,11.523,0,0,1,10.419-5.945c7.358,0,11.654,4.944,11.654,12.184v18.9h-4.532V202.386c0-5.65-3.061-9.182-8.417-9.182-5.239,0-9.124,3.826-9.124,9.536v17.423h-4.532Z"/><path class="cls-1" d="M176.276,205.035v-.117c0-9.948,7.24-15.834,14.539-15.834,5.651,0,9.3,3.06,11.655,6.475V177.193H207v42.97H202.47v-6.122c-2.472,3.65-6.063,6.77-11.655,6.77C183.516,220.811,176.276,215.042,176.276,205.035Zm26.371-.058v-.118c0-7-5.357-11.714-11.008-11.714-5.886,0-10.713,4.356-10.713,11.714v.118c0,7.181,5,11.772,10.713,11.772C197.29,216.749,202.647,211.981,202.647,204.977Z"/><path class="cls-1" d="M216.656,208.626v-18.9h4.532v17.777c0,5.651,3.061,9.182,8.417,9.182,5.18,0,9.124-3.826,9.124-9.535V189.731H243.2v30.432h-4.474v-5.3a11.594,11.594,0,0,1-10.419,5.945C220.952,220.811,216.656,215.866,216.656,208.626Z"/><path class="cls-1" d="M250.855,216.278l2.3-3.237a17.794,17.794,0,0,0,10.537,3.885c3.649,0,6.3-1.884,6.3-4.827v-.118c0-3.06-3.59-4.238-7.593-5.356-4.768-1.354-10.065-3-10.065-8.594v-.118c0-5.239,4.355-8.712,10.359-8.712a20.8,20.8,0,0,1,10.949,3.356l-2.06,3.413a17.216,17.216,0,0,0-9.007-2.943c-3.59,0-5.886,1.884-5.886,4.415v.118c0,2.884,3.768,4,7.829,5.239,4.709,1.413,9.771,3.237,9.771,8.711v.118c0,5.769-4.768,9.124-10.83,9.124A20.926,20.926,0,0,1,250.855,216.278Z"/><path class="cls-1" d="M283.7,212.1V193.734h-4.238v-4H283.7v-9.183h4.532v9.183h9.653v4h-9.653V211.51c0,3.709,2.061,5.063,5.121,5.063a9.535,9.535,0,0,0,4.415-1.06V219.4a11.4,11.4,0,0,1-5.474,1.3C287.408,220.693,283.7,218.28,283.7,212.1Z"/><path class="cls-1" d="M305.891,189.731h4.532v7.946c2.237-5.061,6.652-8.711,12.42-8.476v4.886h-.353c-6.652,0-12.067,4.768-12.067,13.95v12.126h-4.532Z"/><path class="cls-1" d="M329.848,178.076h5.18v5h-5.18Zm.294,11.655h4.532v30.432h-4.532Z"/><path class="cls-1" d="M342.914,211.334v-.118c0-6.416,5.3-9.83,13.009-9.83a32.327,32.327,0,0,1,9.36,1.3v-1.06c0-5.474-3.356-8.3-9.065-8.3a21.2,21.2,0,0,0-9.242,2.237l-1.354-3.709a25.141,25.141,0,0,1,11.067-2.531c4.3,0,7.593,1.118,9.83,3.355,2.06,2.06,3.119,5,3.119,8.888v18.6h-4.355v-4.591a13.337,13.337,0,0,1-11.008,5.239C348.624,220.811,342.914,217.573,342.914,211.334Zm22.427-2.355v-2.943a31.753,31.753,0,0,0-8.947-1.295c-5.709,0-8.888,2.472-8.888,6.3v.118c0,3.826,3.532,6.063,7.652,6.063C360.75,217.22,365.341,213.806,365.341,208.979Z"/><path class="cls-1" d="M379.7,177.193h4.532v42.97H379.7Z"/><path class="cls-1" d="M413.2,178.959h17.718c5.062,0,9.124,1.531,11.714,4.12a11.383,11.383,0,0,1,3.178,8.123v.119c0,6.827-4.709,10.83-11.184,12.007l12.656,16.835h-5.71l-11.949-16.011H417.845v16.011H413.2ZM430.5,199.973c6.18,0,10.6-3.178,10.6-8.476v-.118c0-5.062-3.885-8.123-10.536-8.123H417.845v16.717Z"/><path class="cls-1" d="M452.515,205.035v-.117c0-8.771,6.181-15.834,14.6-15.834,9.006,0,14.186,7.181,14.186,16.069a12,12,0,0,1-.058,1.472H457.106c.648,6.592,5.3,10.3,10.714,10.3a12.592,12.592,0,0,0,9.594-4.3l2.826,2.531a15.71,15.71,0,0,1-12.538,5.71C459.343,220.87,452.515,214.453,452.515,205.035Zm24.193-1.765c-.471-5.534-3.649-10.36-9.712-10.36-5.3,0-9.3,4.415-9.89,10.36Z"/><path class="cls-1" d="M484.773,189.731h5l10.242,25.252,10.3-25.252H515.2L501.96,220.4h-4Z"/><path class="cls-1" d="M518.677,205.094v-.117a15.864,15.864,0,0,1,31.728-.118v.118a15.8,15.8,0,0,1-15.953,15.893A15.591,15.591,0,0,1,518.677,205.094Zm27.077,0v-.117c0-6.534-4.886-11.891-11.3-11.891-6.592,0-11.125,5.357-11.125,11.773v.118c0,6.533,4.827,11.831,11.244,11.831C541.163,216.808,545.754,211.51,545.754,205.094Z"/><path class="cls-1" d="M559,177.193h4.532v42.97H559Z"/><path class="cls-1" d="M573.6,208.626v-18.9h4.533v17.777c0,5.651,3.06,9.182,8.417,9.182,5.18,0,9.124-3.826,9.124-9.535V189.731h4.474v30.432h-4.474v-5.3a11.6,11.6,0,0,1-10.419,5.945C577.892,220.811,573.6,215.866,573.6,208.626Z"/><path class="cls-1" d="M611.915,212.1V193.734h-4.238v-4h4.238v-9.183h4.532v9.183H626.1v4h-9.654V211.51c0,3.709,2.061,5.063,5.121,5.063a9.533,9.533,0,0,0,4.415-1.06V219.4a11.4,11.4,0,0,1-5.474,1.3C615.623,220.693,611.915,218.28,611.915,212.1Z"/><path class="cls-1" d="M634.224,178.076h5.18v5h-5.18Zm.294,11.655h4.532v30.432h-4.532Z"/><path class="cls-1" d="M647.7,205.094v-.117a15.864,15.864,0,0,1,31.727-.118v.118a15.8,15.8,0,0,1-15.952,15.893A15.59,15.59,0,0,1,647.7,205.094Zm27.076,0v-.117c0-6.534-4.885-11.891-11.3-11.891-6.593,0-11.125,5.357-11.125,11.773v.118c0,6.533,4.826,11.831,11.243,11.831C670.188,216.808,674.779,211.51,674.779,205.094Z"/><path class="cls-1" d="M687.612,189.731h4.532v5.3a11.523,11.523,0,0,1,10.419-5.945c7.358,0,11.654,4.944,11.654,12.184v18.9h-4.532V202.386c0-5.65-3.061-9.182-8.417-9.182-5.239,0-9.124,3.826-9.124,9.536v17.423h-4.532Z"/><path class="cls-1" d="M761.9,210.392H740.175L739,206.978l23.31-28.313h4.12v27.842h6.357v3.885h-6.357v9.771H761.9Zm0-3.885v-21.25l-17.306,21.25Z"/><path class="cls-1" d="M780.5,213.982h5.415v6.181H780.5Z"/><path class="cls-1" d="M792.857,199.679v-.118c0-11.537,6.887-21.308,17.483-21.308s17.306,9.654,17.306,21.19v.118c0,11.537-6.829,21.309-17.424,21.309C799.568,220.87,792.857,211.216,792.857,199.679Zm29.962,0v-.118c0-9.006-4.945-17.07-12.6-17.07-7.711,0-12.538,7.888-12.538,16.952v.118c0,9.006,4.944,17.07,12.656,17.07S822.819,208.685,822.819,199.679Z"/><path class="cls-2" d="M21.988,125.972,57.69,20.288H86.648l35.7,105.684H95.024l-6.6-21.577H55.206l-6.6,21.577ZM82.6,85.232,71.814,50.382,61.026,85.232Z"/><path class="cls-2" d="M210.29,125.972H132.641V108.725q9.865-7.808,17.709-14.763t13.805-13.2a77,77,0,0,0,11.214-14.337,25.585,25.585,0,0,0,3.478-12.7q0-7.382-4.4-11.321t-12.279-3.939a28.452,28.452,0,0,0-7.63.994,59.657,59.657,0,0,0-7.276,2.555,43.221,43.221,0,0,0-6.174,3.336L137.255,47.9H135.2V24.831a74.641,74.641,0,0,1,13.983-4.365,79.944,79.944,0,0,1,18.312-2.236q18.807,0,28.5,8.375t9.688,23.564a41.273,41.273,0,0,1-4.4,18.348q-4.4,8.979-14.621,19.27-6.389,6.318-12.421,11.25t-8.731,6.991H210.29Z"/><path class="cls-2" d="M214.052,125.972l35.7-105.684h28.958l35.7,105.684H287.087l-6.6-21.577H247.269l-6.6,21.577Zm60.614-40.74-10.789-34.85-10.788,34.85Z"/><path class="cls-1" d="M501.72,34.909H475.459V15.533H501.72Zm-.709,91.063H476.169V46.265h24.842Z"/><path class="cls-1" d="M592.5,116.816q0,11.073-3.194,18.809a28.9,28.9,0,0,1-8.73,12.066,34.65,34.65,0,0,1-13.273,6.353A70.251,70.251,0,0,1,550.127,156a105.82,105.82,0,0,1-15.083-1.029,118.974,118.974,0,0,1-12.385-2.378V132.644h2.91q1.845.709,4.365,1.562t5.075,1.561q3.05.782,5.962,1.278a35.481,35.481,0,0,0,5.962.5,36.038,36.038,0,0,0,10.54-1.313,13.676,13.676,0,0,0,6.352-3.727,14.194,14.194,0,0,0,2.981-5.855,35.364,35.364,0,0,0,.852-8.482v-1.491a33.73,33.73,0,0,1-9.688,5.927,29.8,29.8,0,0,1-11.321,2.236q-15.474,0-23.884-10.079T514.354,84.1a51.012,51.012,0,0,1,2.591-16.821,37.8,37.8,0,0,1,7.2-12.705A29.8,29.8,0,0,1,534.8,46.8a32.079,32.079,0,0,1,12.989-2.733,35.479,35.479,0,0,1,10.93,1.562,36.018,36.018,0,0,1,8.8,4.187l.923-3.549H592.5Zm-24.842-15.969V64.72a21.545,21.545,0,0,0-4.543-1.42,26.155,26.155,0,0,0-5.394-.568q-8.943,0-13.45,5.785t-4.507,16.147a48.194,48.194,0,0,0,.675,8.765,16.938,16.938,0,0,0,2.519,6.353,11.371,11.371,0,0,0,4.649,4.081,16.948,16.948,0,0,0,7.346,1.384,19.67,19.67,0,0,0,6.566-1.135A23.7,23.7,0,0,0,567.658,100.847Z"/><path class="cls-1" d="M637.073,34.909H610.812V15.533h26.261Zm-.709,91.063H611.522V46.265h24.842Z"/><path class="cls-1" d="M685.905,127.534q-15.189,0-22.109-6.246t-6.92-20.441V63.584h-9.511V46.265h9.511V23.482h24.842V46.265h23.919V63.584H681.718V91.833q0,4.188.07,7.31a14.984,14.984,0,0,0,1.137,5.607,7.85,7.85,0,0,0,3.512,3.94q2.52,1.455,7.346,1.455a29.329,29.329,0,0,0,9.725-2.414h2.129v17.532a70.254,70.254,0,0,1-8.588,1.668A86.861,86.861,0,0,1,685.905,127.534Z"/><path class="cls-1" d="M759.722,117.526q-2.556,2.13-4.579,3.833a27.8,27.8,0,0,1-5.43,3.407,36.331,36.331,0,0,1-6.494,2.484,35.621,35.621,0,0,1-8.836.852,23.634,23.634,0,0,1-17.567-7.1q-6.992-7.1-6.991-17.886,0-8.871,3.549-14.337a24.35,24.35,0,0,1,10.22-8.659,53.506,53.506,0,0,1,16.112-4.543q9.369-1.278,20.157-1.987v-.426q0-6.6-4.862-9.121t-14.586-2.519a40.061,40.061,0,0,0-10.291,1.6,79.918,79.918,0,0,0-11.5,4.081H716.5V47.969q3.689-1.065,11.924-2.52a95.334,95.334,0,0,1,16.608-1.455q20.583,0,29.988,6.85t9.4,20.9v54.226h-24.7Zm0-12.35V88.568q-6.318.639-10.221,1.1a34.774,34.774,0,0,0-7.665,1.81,10.726,10.726,0,0,0-5.075,3.442,9.672,9.672,0,0,0-1.811,6.14q0,5.607,3.017,7.7t8.908,2.093a16.576,16.576,0,0,0,6.672-1.49A20.677,20.677,0,0,0,759.722,105.176Z"/><path class="cls-1" d="M827.646,125.972H802.8V15.533h24.843Z"/><path class="cls-1" d="M455.869,46.585A47.386,47.386,0,0,0,439.4,28.592a45.676,45.676,0,0,0-18.241-6.884,144.708,144.708,0,0,0-20.867-1.42h-6.246V40.02h.5q8.232,0,14.159.284a25.681,25.681,0,0,1,11.321,3.264,26.139,26.139,0,0,1,11.037,11.605q3.584,7.418,3.584,17.851T431.241,90.7a26.379,26.379,0,0,1-9.937,11.356,24.021,24.021,0,0,1-11.676,3.8q-6.139.319-15.082.319h-.5V85.707H367.5v40.265h33.076a132.363,132.363,0,0,0,20.618-1.526,45.762,45.762,0,0,0,17.922-6.849,48.3,48.3,0,0,0,16.325-17.922A53.7,53.7,0,0,0,461.9,73.237Q461.9,57.906,455.869,46.585Z"/><rect class="cls-1" x="356.913" y="10.422" width="9.894" height="10.038"/><rect class="cls-1" x="356.913" y="48.064" width="9.894" height="10.038"/><rect class="cls-1" x="374.165" y="20.522" width="9" height="8.876" transform="translate(353.706 403.625) rotate(-90)"/><rect class="cls-1" x="373.203" y="57.872" width="10.925" height="8.876" transform="translate(316.355 440.975) rotate(-90)"/><rect class="cls-1" x="366.125" y="67.567" width="8.783" height="7.421" transform="translate(299.24 441.794) rotate(-90)"/><rect class="cls-1" x="374.901" y="38.607" width="7.529" height="8.876" transform="translate(335.62 421.71) rotate(-90)"/><polygon class="cls-1" points="374.136 66.958 394.049 66.958 394.049 85.707 374.227 85.707 374.136 66.958"/><rect class="cls-1" x="383.103" y="29.46" width="10.946" height="37.54"/><rect class="cls-1" x="366.8" y="29.46" width="7.427" height="9.782"/></svg>