<svg id="Layer_1" data-name="Layer 1" xmlns="http://www.w3.org/2000/svg" viewBox="0 0 1000 1000"><defs><style>.cls-1{fill:#138690;}.cls-2{fill:#a40505;}</style></defs><title>logo</title><path class="cls-1" d="M101.18,578.09H97v-4h4.18V571.5c0-3.48.94-6.13,2.65-7.83a9,9,0,0,1,6.53-2.36,13.72,13.72,0,0,1,5,.77V566a15.09,15.09,0,0,0-4.41-.76c-3.53,0-5.3,2.12-5.3,6.47v2.47h9.66v3.89h-9.6v26.43h-4.53Z"/><path class="cls-1" d="M118.6,589.45v-.12a15.87,15.87,0,0,1,31.73-.12v.12a15.8,15.8,0,0,1-16,15.89A15.59,15.59,0,0,1,118.6,589.45Zm27.08,0v-.12c0-6.53-4.89-11.89-11.3-11.89-6.6,0-11.13,5.36-11.13,11.77v.12c0,6.53,4.83,11.83,11.25,11.83C141.09,601.16,145.68,595.86,145.68,589.45Z"/><path class="cls-1" d="M158.51,574.09H163V582c2.24-5.06,6.66-8.71,12.42-8.47v4.88h-.35c-6.65,0-12.07,4.77-12.07,13.95v12.13h-4.53Z"/><path class="cls-1" d="M201.19,563.31h4.65v41.21h-4.65Z"/><path class="cls-1" d="M217.14,574.09h4.53v5.29a11.53,11.53,0,0,1,10.42-5.94c7.36,0,11.65,4.94,11.65,12.18v18.9h-4.53V586.74c0-5.65-3.06-9.18-8.42-9.18s-9.12,3.82-9.12,9.53v17.43h-4.53Z"/><path class="cls-1" d="M251.63,589.39v-.12c0-9.95,7.24-15.83,14.54-15.83,5.65,0,9.3,3.06,11.65,6.47V561.55h4.54v43h-4.54V598.4c-2.47,3.65-6.06,6.76-11.65,6.76C258.87,605.16,251.63,599.4,251.63,589.39Zm26.37-.06v-.12c0-7-5.36-11.71-11-11.71-5.88,0-10.71,4.36-10.71,11.71v.12c0,7.18,5,11.77,10.71,11.77S278,596.34,278,589.33Z"/><path class="cls-1" d="M292,593V574.09h4.53v17.77c0,5.65,3.06,9.18,8.42,9.18,5.18,0,9.12-3.82,9.12-9.53V574.09h4.48v30.43h-4.48v-5.3a11.58,11.58,0,0,1-10.42,5.94C296.31,605.16,292,600.22,292,593Z"/><path class="cls-1" d="M326.21,600.63l2.29-3.24A17.77,17.77,0,0,0,339,601.28c3.65,0,6.3-1.88,6.3-4.83v-.11c0-3.07-3.59-4.24-7.59-5.36-4.77-1.35-10.07-3-10.07-8.59v-.12c0-5.24,4.36-8.71,10.36-8.71A20.8,20.8,0,0,1,349,576.91l-2.06,3.41a17.25,17.25,0,0,0-9-2.94c-3.59,0-5.88,1.89-5.88,4.42v.11c0,2.89,3.76,4,7.83,5.24,4.7,1.42,9.77,3.24,9.77,8.71V596c0,5.77-4.77,9.13-10.83,9.13A20.91,20.91,0,0,1,326.21,600.63Z"/><path class="cls-1" d="M359.05,596.45V578.09h-4.23v-4h4.23V564.9h4.54v9.19h9.65v4h-9.65v17.77c0,3.71,2.06,5.07,5.12,5.07a9.58,9.58,0,0,0,4.41-1.06v3.88a11.31,11.31,0,0,1-5.47,1.3C362.76,605.05,359.05,602.63,359.05,596.45Z"/><path class="cls-1" d="M381.25,574.09h4.53V582c2.23-5.06,6.65-8.71,12.42-8.47v4.88h-.36c-6.65,0-12.06,4.77-12.06,13.95v12.13h-4.53Z"/><path class="cls-1" d="M405.2,562.43h5.18v5H405.2Zm.3,11.66H410v30.43H405.5Z"/><path class="cls-1" d="M418.27,595.69v-.12c0-6.42,5.3-9.83,13-9.83a32.18,32.18,0,0,1,9.36,1.3V586c0-5.48-3.36-8.3-9.07-8.3a21.27,21.27,0,0,0-9.24,2.23L421,576.2A25.11,25.11,0,0,1,432,573.67c4.3,0,7.6,1.12,9.83,3.36,2.06,2.06,3.12,5,3.12,8.89v18.6h-4.35v-4.59a13.35,13.35,0,0,1-11,5.23C424,605.16,418.27,601.93,418.27,595.69Zm22.43-2.36v-2.94a31.71,31.71,0,0,0-8.95-1.29c-5.71,0-8.89,2.47-8.89,6.29v.12c0,3.83,3.53,6.06,7.65,6.06C436.1,601.57,440.7,598.16,440.7,593.33Z"/><path class="cls-1" d="M455.06,561.55h4.53v43h-4.53Z"/><path class="cls-1" d="M488.55,563.31h17.72c5.06,0,9.12,1.53,11.71,4.12a11.41,11.41,0,0,1,3.18,8.13v.11c0,6.83-4.71,10.84-11.18,12l12.65,16.84h-5.71l-11.95-16H493.2v16h-4.65Zm17.31,21c6.18,0,10.59-3.18,10.59-8.48v-.12c0-5.06-3.88-8.12-10.54-8.12H493.2v16.72Z"/><path class="cls-1" d="M527.87,589.39v-.12c0-8.77,6.18-15.83,14.6-15.83,9,0,14.18,7.18,14.18,16.07a11.56,11.56,0,0,1-.06,1.47H532.46c.65,6.59,5.3,10.3,10.71,10.3a12.6,12.6,0,0,0,9.6-4.3l2.82,2.53a15.69,15.69,0,0,1-12.53,5.71C534.7,605.22,527.87,598.81,527.87,589.39Zm24.19-1.77c-.47-5.53-3.65-10.36-9.71-10.36-5.3,0-9.3,4.42-9.89,10.36Z"/><path class="cls-1" d="M560.13,574.09h5l10.24,25.25,10.3-25.25h4.89l-13.25,30.66h-4Z"/><path class="cls-1" d="M594,589.45v-.12a15.87,15.87,0,0,1,31.73-.12v.12a15.8,15.8,0,0,1-16,15.89A15.59,15.59,0,0,1,594,589.45Zm27.08,0v-.12c0-6.53-4.89-11.89-11.3-11.89-6.6,0-11.13,5.36-11.13,11.77v.12c0,6.53,4.83,11.83,11.24,11.83C616.52,601.16,621.11,595.86,621.11,589.45Z"/><path class="cls-1" d="M634.35,561.55h4.53v43h-4.53Z"/><path class="cls-1" d="M649,593V574.09h4.53v17.77c0,5.65,3.06,9.18,8.42,9.18,5.18,0,9.12-3.82,9.12-9.53V574.09h4.48v30.43H671v-5.3a11.58,11.58,0,0,1-10.42,5.94C653.25,605.16,649,600.22,649,593Z"/><path class="cls-1" d="M687.27,596.45V578.09H683v-4h4.24V564.9h4.53v9.19h9.65v4H691.8v17.77c0,3.71,2.06,5.07,5.12,5.07a9.62,9.62,0,0,0,4.42-1.06v3.88a11.35,11.35,0,0,1-5.48,1.3C691,605.05,687.27,602.63,687.27,596.45Z"/><path class="cls-1" d="M709.58,562.43h5.18v5h-5.18Zm.29,11.66h4.53v30.43h-4.53Z"/><path class="cls-1" d="M723.06,589.45v-.12a15.86,15.86,0,0,1,31.72-.12v.12a15.8,15.8,0,0,1-15.95,15.89A15.59,15.59,0,0,1,723.06,589.45Zm27.07,0v-.12c0-6.53-4.88-11.89-11.3-11.89-6.59,0-11.12,5.36-11.12,11.77v.12c0,6.53,4.82,11.83,11.24,11.83C745.54,601.16,750.13,595.86,750.13,589.45Z"/><path class="cls-1" d="M763,574.09h4.53v5.29a11.53,11.53,0,0,1,10.42-5.94c7.36,0,11.65,4.94,11.65,12.18v18.9H785V586.74c0-5.65-3.06-9.18-8.42-9.18s-9.12,3.82-9.12,9.53v17.43H763Z"/><path class="cls-1" d="M837.25,594.75H815.53l-1.18-3.42L837.66,563h4.12v27.84h6.36v3.89h-6.36v9.77h-4.53Zm0-3.89V569.61l-17.31,21.25Z"/><path class="cls-1" d="M855.85,598.34h5.42v6.18h-5.42Z"/><path class="cls-1" d="M868.21,584v-.11c0-11.54,6.89-21.31,17.48-21.31S903,572.26,903,583.8v.12c0,11.53-6.83,21.3-17.42,21.3S868.21,595.57,868.21,584Zm30,0v-.11c0-9-4.94-17.07-12.59-17.07S873,574.73,873,583.8v.12c0,9,4.94,17.07,12.65,17.07S898.17,593,898.17,584Z"/><path class="cls-2" d="M97.34,510.33,133,404.64h29l35.7,105.69H170.38l-6.6-21.58H130.56L124,510.33ZM158,469.59l-10.79-34.85-10.79,34.85Z"/><path class="cls-2" d="M285.64,510.33H208V493.08q9.85-7.81,17.7-14.76t13.81-13.21a77.08,77.08,0,0,0,11.21-14.33,25.58,25.58,0,0,0,3.48-12.71q0-7.38-4.4-11.32t-12.28-3.94a28.13,28.13,0,0,0-7.63,1,59,59,0,0,0-7.27,2.55,43,43,0,0,0-6.18,3.34l-3.83,2.55h-2.06V409.19a74.53,74.53,0,0,1,14-4.37,80.06,80.06,0,0,1,18.32-2.24q18.79,0,28.49,8.38T281,434.52a41.29,41.29,0,0,1-4.4,18.35q-4.39,9-14.62,19.27-6.39,6.32-12.42,11.25t-8.73,7h44.78Z"/><path class="cls-2" d="M289.41,510.33l35.7-105.69h29l35.7,105.69H362.44l-6.6-21.58H322.62L316,510.33ZM350,469.59l-10.79-34.85-10.79,34.85Z"/><path class="cls-1" d="M577.07,419.26H550.81V399.89h26.26Zm-.7,91.07H551.52V430.62h24.85Z"/><path class="cls-1" d="M667.85,501.17q0,11.07-3.19,18.81a28.94,28.94,0,0,1-8.73,12.07,34.7,34.7,0,0,1-13.27,6.35,70.36,70.36,0,0,1-17.18,2,105,105,0,0,1-15.08-1A119,119,0,0,1,598,536.94V517h2.91c1.23.47,2.69,1,4.37,1.56s3.37,1.09,5.07,1.56c2,.52,4,1,6,1.28a35.33,35.33,0,0,0,6,.5,35.87,35.87,0,0,0,10.54-1.32,13.71,13.71,0,0,0,6.35-3.72,14.24,14.24,0,0,0,3-5.86,35.26,35.26,0,0,0,.85-8.48V501a33.89,33.89,0,0,1-9.69,5.93A29.78,29.78,0,0,1,622,509.19q-15.46,0-23.88-10.08t-8.41-30.66a51,51,0,0,1,2.59-16.82,38,38,0,0,1,7.2-12.71,29.88,29.88,0,0,1,10.65-7.77,32.08,32.08,0,0,1,13-2.73A35.48,35.48,0,0,1,634.07,430a35.89,35.89,0,0,1,8.8,4.19l.92-3.55h24.06ZM643,485.2V449.07a22,22,0,0,0-4.54-1.42,26.74,26.74,0,0,0-5.39-.56q-9,0-13.45,5.78T615.12,469a48.24,48.24,0,0,0,.67,8.76,17,17,0,0,0,2.52,6.36,11.38,11.38,0,0,0,4.65,4.08,17,17,0,0,0,7.35,1.38,19.81,19.81,0,0,0,6.56-1.13A23.64,23.64,0,0,0,643,485.2Z"/><path class="cls-1" d="M712.43,419.26H686.17V399.89h26.26Zm-.71,91.07H686.88V430.62h24.84Z"/><path class="cls-1" d="M761.26,511.89q-15.19,0-22.11-6.25t-6.92-20.44V447.94h-9.51V430.62h9.51V407.84h24.84v22.78H781v17.32H757.07v28.25q0,4.19.07,7.31a15,15,0,0,0,1.14,5.6,7.83,7.83,0,0,0,3.51,3.94q2.52,1.45,7.35,1.46a21.38,21.38,0,0,0,5.21-.85,21.91,21.91,0,0,0,4.51-1.56H781v17.53a69.56,69.56,0,0,1-8.59,1.66A85.06,85.06,0,0,1,761.26,511.89Z"/><path class="cls-1" d="M835.08,501.88l-4.58,3.83a27.87,27.87,0,0,1-5.43,3.41,29.69,29.69,0,0,1-15.33,3.34,23.65,23.65,0,0,1-17.57-7.1q-7-7.1-7-17.89,0-8.87,3.55-14.33A24.2,24.2,0,0,1,799,464.48a53.27,53.27,0,0,1,16.11-4.55q9.38-1.28,20.16-2v-.43q0-6.6-4.86-9.12t-14.59-2.52a39.9,39.9,0,0,0-10.29,1.6,79,79,0,0,0-11.5,4.08h-2.13V432.32q3.69-1.06,11.93-2.52a95.11,95.11,0,0,1,16.6-1.45q20.6,0,30,6.85t9.41,20.9v54.23h-24.7Zm0-12.35V472.92c-4.22.43-7.62.8-10.22,1.1a34.78,34.78,0,0,0-7.67,1.81,10.82,10.82,0,0,0-5.08,3.44,9.73,9.73,0,0,0-1.81,6.14q0,5.61,3,7.7t8.91,2.1a16.64,16.64,0,0,0,6.67-1.49A20.86,20.86,0,0,0,835.08,489.53Z"/><path class="cls-1" d="M903,510.33H878.16V399.89H903Z"/><path class="cls-1" d="M531.22,430.94a47.31,47.31,0,0,0-16.46-18,45.65,45.65,0,0,0-18.24-6.89,145.66,145.66,0,0,0-20.87-1.42H469.4v19.73h.5q8.24,0,14.16.29a25.8,25.8,0,0,1,11.32,3.26,26.16,26.16,0,0,1,11,11.61q3.58,7.41,3.58,17.85t-3.41,17.67a26.4,26.4,0,0,1-9.93,11.36A24,24,0,0,1,485,490.2q-6.14.33-15.08.32h-.5V470.06H442.86v40.27h33.07a132.23,132.23,0,0,0,20.62-1.53A45.79,45.79,0,0,0,514.47,502,48.31,48.31,0,0,0,530.8,484a53.76,53.76,0,0,0,6.46-26.44Q537.26,442.26,531.22,430.94Z"/><rect class="cls-1" x="432.27" y="394.78" width="9.89" height="10.04"/><rect class="cls-1" x="432.27" y="432.42" width="9.89" height="10.04"/><rect class="cls-1" x="449.52" y="404.88" width="9" height="8.88" transform="translate(44.71 863.33) rotate(-90)"/><rect class="cls-1" x="448.56" y="442.23" width="10.93" height="8.88" transform="translate(7.36 900.68) rotate(-90)"/><rect class="cls-1" x="441.48" y="451.92" width="8.78" height="7.42" transform="translate(-9.76 901.5) rotate(-90)"/><rect class="cls-1" x="450.26" y="422.96" width="7.53" height="8.88" transform="translate(26.62 881.42) rotate(-90)"/><polygon class="cls-1" points="449.49 451.31 469.4 451.31 469.4 470.06 449.58 470.06 449.49 451.31"/><rect class="cls-1" x="458.46" y="413.81" width="10.95" height="37.54"/><rect class="cls-1" x="442.15" y="413.81" width="7.43" height="9.78"/></svg>